<?xml version="1.0" encoding="UTF-8"?>
<svg version="1.1" xmlns="http://www.w3.org/2000/svg" width="1024" height="1024">
<path d="M0 0 C337.92 0 675.84 0 1024 0 C1024 337.92 1024 675.84 1024 1024 C686.08 1024 348.16 1024 0 1024 C0 686.08 0 348.16 0 0 Z " fill="#FDFDFD" transform="translate(0,0)"/>
<path d="M0 0 C1.58836628 -0.01645474 3.1766618 -0.04360427 4.76464844 -0.08203125 C17.1398624 -0.37920177 28.17778909 0.61520949 37.77880859 9.47509766 C44.84100964 16.2757357 49.16653233 24.13968227 49.54247379 33.97948933 C49.55397182 35.41242711 49.56012362 36.84541395 49.56202698 38.27839661 C49.56943394 39.4669932 49.56943394 39.4669932 49.57699054 40.67960185 C49.59233234 43.33123966 49.60071717 45.98285332 49.60913086 48.63452148 C49.61871199 50.5367148 49.62872221 52.438906 49.63912964 54.34109497 C49.66615927 59.50384382 49.68717937 64.66660178 49.70713162 69.82938218 C49.72900313 75.22527621 49.75638613 80.62114217 49.78318787 86.01701355 C49.83309898 96.23433825 49.8780437 106.45167853 49.92121023 116.66903371 C49.9705961 128.30135316 50.02550923 139.93364446 50.08088982 151.56593668 C50.19468561 175.49396407 50.3015299 199.42201847 50.40380859 223.35009766 C51.82207867 221.94546479 53.23835106 220.5388147 54.65380859 219.13134766 C55.83716797 217.95668945 55.83716797 217.95668945 57.04443359 216.75830078 C59.84760969 213.89711194 62.48539546 210.92157964 65.09130859 207.88134766 C65.83506323 207.01363392 66.59569409 206.15821216 67.40380859 205.35009766 C67.49760503 203.24250907 67.51954354 201.13171861 67.5149231 199.02204895 C67.51492211 198.35320275 67.51492113 197.68435656 67.51492012 196.9952423 C67.5138808 194.73695147 67.50584916 192.47873581 67.49804688 190.22045898 C67.4961689 188.60758007 67.49482332 186.99470046 67.49397278 185.38182068 C67.49168316 181.89779344 67.48695122 178.41378051 67.48077774 174.92975807 C67.47238446 169.41039742 67.4778018 163.89110656 67.48678589 158.37174988 C67.48825689 157.44034787 67.4897279 156.50894587 67.49124348 155.54931957 C67.49431464 153.64386805 67.49743468 151.73841661 67.50060248 149.83296525 C67.52177398 136.97995546 67.53560993 124.12717049 67.50341797 111.27416992 C67.48182115 102.61135051 67.48514161 93.94893038 67.51682651 85.28613681 C67.53261877 80.70458379 67.53604722 76.12379356 67.50906754 71.54227638 C67.48384468 67.22039211 67.49180536 62.89977767 67.52394676 58.57795143 C67.52998479 57.00191195 67.52436821 55.42577198 67.50545311 53.84983444 C67.36081277 40.89070177 70.33330562 30.79502234 79.09130859 20.85009766 C87.53311547 13.1531561 97.39747671 9.9691816 108.57177734 10.07275391 C119.0479821 10.83097056 127.41671259 15.31026077 136.40380859 20.35009766 C137.86548462 21.16051514 137.86548462 21.16051514 139.35668945 21.98730469 C150.24674187 28.02716569 161.10995388 34.10823601 171.82055664 40.46166992 C178.13216029 44.20357605 184.48373125 47.87442437 190.84130859 51.53759766 C191.94853271 52.17560303 193.05575684 52.8136084 194.1965332 53.47094727 C196.46717927 54.77899242 198.73793217 56.08685214 201.00878906 57.39453125 C206.47550844 60.54341822 211.93952988 63.69697801 217.40380859 66.85009766 C219.57307676 68.10140436 221.7423476 69.35270644 223.91162109 70.60400391 C228.21982511 73.08940667 232.52703649 75.57651742 236.83349609 78.06494141 C248.64010343 84.88512403 260.46407859 91.67333026 272.30853271 98.42745972 C281.33800028 103.5782596 290.33181179 108.78722431 299.29760742 114.0480957 C304.75270967 117.24262321 310.22959188 120.39333321 315.73583984 123.49853516 C316.99302459 124.20943147 318.25018611 124.92036886 319.50732422 125.63134766 C321.90178187 126.98515759 324.30053752 128.33007918 326.70263672 129.67041016 C337.9051697 136.00085495 347.91149933 141.93769078 354.40380859 153.35009766 C354.76345703 153.94951172 355.12310547 154.54892578 355.49365234 155.16650391 C359.71093956 163.85372689 358.50126601 176.42426181 355.46630859 185.28759766 C351.2340142 194.66411727 345.57012514 200.65765615 336.28662109 205.09619141 C335.59329178 205.434953 334.89996246 205.7737146 334.18562317 206.1227417 C325.57132188 210.29662791 316.83169496 214.19953966 308.09130859 218.10009766 C306.30733585 218.8993122 304.5234833 219.69879506 302.73974609 220.49853516 C292.09716263 225.26693479 281.44278151 230.00880789 270.78100586 234.73413086 C260.68032952 239.21508875 250.60416206 243.75005256 240.52880859 248.28759766 C239.23215271 248.87151276 239.23215271 248.87151276 237.90930176 249.46722412 C234.47283147 251.01476886 231.03638586 252.56236839 227.59997559 254.11004639 C194.52590111 269.00464834 161.38584243 283.75111576 128.18539429 298.36183167 C123.35445058 300.48859393 118.52691494 302.62295074 113.70071411 304.76045227 C76.04739539 321.43092138 76.04739539 321.43092138 57.70556641 328.46362305 C56.25128343 329.02371018 54.80187545 329.59678096 53.35986328 330.18774414 C34.60918166 337.70543957 11.60872983 339.26223247 -7.30322266 331.90869141 C-15.25886847 328.1937582 -21.49768107 323.6344049 -27.59619141 317.35009766 C-28.25361328 316.70169922 -28.91103516 316.05330078 -29.58837891 315.38525391 C-39.85537653 304.61151606 -43.0739111 289.61355114 -42.98387146 275.14169312 C-42.989257 274.08085561 -42.99464254 273.02001811 -43.00019127 271.92703402 C-43.01438318 268.40826574 -43.00738885 264.88987833 -43.00024414 261.37109375 C-43.00595215 258.83385417 -43.01291807 256.29661715 -43.02104187 253.75938416 C-43.03708256 247.60540538 -43.03908459 241.45156493 -43.03382897 235.29757164 C-43.02977457 230.29364266 -43.03124582 225.28974376 -43.03657722 220.28581619 C-43.03732565 219.57151074 -43.03807407 218.85720529 -43.03884517 218.12125421 C-43.04037676 216.66982693 -43.0419151 215.21839965 -43.04346014 213.76697238 C-43.05715928 200.18420701 -43.05176483 186.60149939 -43.04027493 173.01873536 C-43.0303365 160.60723255 -43.04329829 148.19587869 -43.06720912 135.78439884 C-43.09161893 123.01707506 -43.10120391 110.24982061 -43.09455639 97.48247397 C-43.09106947 90.3237249 -43.09326175 83.16509045 -43.11080742 76.0063591 C-43.12709665 69.2773413 -43.12231879 62.54865336 -43.10350227 55.81962776 C-43.09981743 53.35338075 -43.10292173 50.88711264 -43.11338806 48.42088509 C-43.12660559 45.04844118 -43.1150426 41.67693875 -43.09739685 38.30453491 C-43.10700186 37.33409315 -43.11660686 36.3636514 -43.12650293 35.36380231 C-43.01399397 24.87776477 -39.35251205 17.16624188 -32.17431641 9.61962891 C-22.197591 0.83708729 -12.62218706 0.09544674 0 0 Z " fill="#FD6406" transform="translate(373.59619140625,242.64990234375)"/>
<path d="M0 0 C15.66213072 14.10882055 25.99101541 34.16756387 27.30664062 55.33862305 C28.16291716 76.83758603 23.98591347 96.8719013 10.16601562 114.07568359 C9.49828125 114.90712891 8.83054687 115.73857422 8.14257812 116.59521484 C-3.60595035 130.40079614 -18.45009165 138.54969969 -35.83398438 143.07568359 C-36.49156738 143.25373535 -37.14915039 143.43178711 -37.82666016 143.61523438 C-59.86052523 149.12986086 -83.48898285 144.41356335 -102.83398438 133.07568359 C-106.38664592 130.61512002 -109.61741448 127.95366718 -112.83398438 125.07568359 C-113.66800781 124.42857422 -114.50203125 123.78146484 -115.36132812 123.11474609 C-129.07804187 111.80333286 -138.18345295 91.67677742 -140.54882812 74.38427734 C-142.81619199 48.0766445 -135.71890519 25.79711382 -118.68164062 5.51318359 C-107.42836052 -6.55737383 -89.29523196 -16.72084232 -72.83398438 -18.92431641 C-72.15851563 -19.03259766 -71.48304688 -19.14087891 -70.78710938 -19.25244141 C-45.84336985 -22.71179214 -19.32537937 -16.56034518 0 0 Z " fill="#FD5E0E" transform="translate(911.833984375,666.92431640625)"/>
<path d="M0 0 C0.77943466 0.00222061 1.55886932 0.00444122 2.36192322 0.00672913 C3.68317955 0.00684242 3.68317955 0.00684242 5.03112793 0.00695801 C5.98841293 0.01211929 6.94569794 0.01728058 7.93199158 0.02259827 C9.39480812 0.02472069 9.39480812 0.02472069 10.88717651 0.02688599 C14.01542675 0.03250319 17.14360656 0.04505859 20.27183533 0.05775452 C22.38706867 0.0627673 24.50230313 0.06733059 26.61753845 0.07142639 C31.81482829 0.0824782 37.01207678 0.09923305 42.20933533 0.12025452 C42.22146561 1.83794289 42.22146561 1.83794289 42.23384094 3.59033203 C42.3114655 14.4039922 42.39924562 25.21752908 42.49686241 36.03102779 C42.54671962 41.58979759 42.59305043 47.14854934 42.63121033 52.70741272 C42.66819689 58.07618203 42.71459276 63.44479649 42.76739883 68.81343269 C42.78587189 70.85741511 42.80100575 72.90143063 42.81267929 74.94546318 C42.82966352 77.81760755 42.85872712 80.6894027 42.89048767 83.56141663 C42.89264786 84.39867783 42.89480804 85.23593903 42.89703369 86.09857178 C43.03745757 96.09735993 45.13710976 106.05477329 51.70542908 113.90931702 C59.61001154 121.30209198 69.76700107 124.39894775 80.33824158 124.27259827 C91.05282695 123.70406925 101.37834756 119.52285127 109.20933533 112.12025452 C115.80645517 104.16943996 117.65885897 94.4308967 117.64170837 84.35609436 C117.65190002 83.43779846 117.66209167 82.51950256 117.67259216 81.57337952 C117.70248431 78.57591971 117.71195147 75.57878067 117.72105408 72.58119202 C117.73791842 70.48797056 117.756071 68.39475912 117.77545166 66.30155945 C117.82276709 60.82066479 117.85269562 55.33981077 117.87889099 49.85877991 C117.91405661 43.26726027 117.9710165 36.6758966 118.02428436 30.08450317 C118.1025816 20.09644063 118.15335129 10.10857923 118.20933533 0.12025452 C132.72933533 0.12025452 147.24933533 0.12025452 162.20933533 0.12025452 C162.20933533 52.59025452 162.20933533 105.06025452 162.20933533 159.12025452 C148.01933533 159.12025452 133.82933533 159.12025452 119.20933533 159.12025452 C118.71433533 150.21025452 118.71433533 150.21025452 118.20933533 141.12025452 C117.01308533 142.44025452 115.81683533 143.76025452 114.58433533 145.12025452 C101.92683748 157.79774841 85.08431491 163.24327856 67.45933533 163.43275452 C50.18472003 163.3570519 34.92735674 158.77920495 21.20933533 148.12025452 C20.57253845 147.64845764 19.93574158 147.17666077 19.27964783 146.69056702 C7.95225515 137.77968478 2.29670226 123.80817613 -0.79066467 110.12025452 C-0.95399953 109.42024606 -1.11733438 108.7202376 -1.28561878 107.99901676 C-2.62338809 101.89454323 -3.07304664 96.15021008 -3.03358459 89.91297913 C-3.03548294 88.94752167 -3.03738129 87.98206421 -3.03933716 86.98735046 C-3.04300834 83.83234748 -3.03239889 80.67758037 -3.02113342 77.52259827 C-3.01994014 75.31968208 -3.01948877 73.11676537 -3.01974487 70.91384888 C-3.01818671 66.31700924 -3.00994342 61.72024822 -2.99647522 57.12342834 C-2.9793961 51.21834954 -2.97566379 45.3133562 -2.9764204 39.40825558 C-2.97614932 34.86941709 -2.97067964 30.33059745 -2.96341896 25.79176521 C-2.96022924 23.61275436 -2.95826418 21.43374138 -2.95752525 19.25472832 C-2.95537 16.22410766 -2.94664621 13.19357998 -2.93592834 10.16297913 C-2.93638153 9.25656174 -2.93683472 8.35014435 -2.93730164 7.41625977 C-2.89973758 0.19473581 -2.89973758 0.19473581 0 0 Z " fill="#121C2F" transform="translate(582.7906646728516,649.8797454833984)"/>
<path d="M0 0 C14.54241101 12.04596379 22.17097254 27.23254918 24.34375 45.94140625 C24.85369557 54.00014908 24.69474683 62.08617923 24.63671875 70.15625 C24.63111195 72.46651431 24.62684699 74.77678222 24.62385559 77.08705139 C24.61249215 83.11874529 24.58309955 89.15021672 24.54974365 95.18182373 C24.51341179 102.44495803 24.4998411 109.7081674 24.48238373 116.97136688 C24.45345611 127.96153394 24.39590946 138.95121448 24.34375 149.94140625 C9.49375 149.94140625 -5.35625 149.94140625 -20.65625 149.94140625 C-20.68203125 142.98304688 -20.7078125 136.0246875 -20.734375 128.85546875 C-20.7595554 124.4348595 -20.78589759 120.01431786 -20.81640625 115.59375 C-20.8646709 108.58447046 -20.90874218 101.5753475 -20.92724609 94.56591797 C-20.94244223 88.91175233 -20.97694084 83.25799761 -21.02455902 77.60401535 C-21.03934224 75.45201575 -21.04728925 73.29995747 -21.04813385 71.14790726 C-21.05051443 68.12241578 -21.07768239 65.0980499 -21.11035156 62.07275391 C-21.1053212 61.19233429 -21.10029083 60.31191467 -21.09510803 59.40481567 C-21.25776598 49.60365882 -24.79780214 41.9052765 -31.515625 34.8515625 C-40.03182511 27.25225255 -50.80285194 26.41173602 -61.74609375 26.6953125 C-71.36373144 27.30061837 -79.70166302 30.71095139 -86.41015625 37.79296875 C-92.53477882 45.49863424 -95.25849589 53.06991251 -95.20214844 62.86743164 C-95.21248611 63.81484222 -95.22282379 64.76225281 -95.23347473 65.7383728 C-95.26273734 68.83877961 -95.26439841 71.93852889 -95.265625 75.0390625 C-95.28061779 77.20097588 -95.29734724 79.36287785 -95.31573486 81.52476501 C-95.35929688 87.19148302 -95.37938285 92.85804653 -95.39447021 98.52490234 C-95.41753461 105.33666701 -95.46995147 112.14826228 -95.51741028 118.95989227 C-95.58609611 129.28710767 -95.61764948 139.61383729 -95.65625 149.94140625 C-110.17625 149.94140625 -124.69625 149.94140625 -139.65625 149.94140625 C-139.65625 97.80140625 -139.65625 45.66140625 -139.65625 -8.05859375 C-125.46625 -8.05859375 -111.27625 -8.05859375 -96.65625 -8.05859375 C-96.16125 0.85140625 -96.16125 0.85140625 -95.65625 9.94140625 C-94.8725 8.93078125 -94.08875 7.92015625 -93.28125 6.87890625 C-71.23218546 -18.74148564 -26.03238373 -19.56654816 0 0 Z " fill="#131D30" transform="translate(309.65625,659.05859375)"/>
<path d="M0 0 C0 12.21 0 24.42 0 37 C-11.375 37.3125 -11.375 37.3125 -14.89599609 37.38793945 C-22.74496775 37.66164787 -30.01636908 38.66178185 -36.875 42.6875 C-43.46772378 49.86193471 -43.20863525 55.71225826 -44 66 C-29.48 66 -14.96 66 0 66 C0 78.54 0 91.08 0 104 C-14.52 104 -29.04 104 -44 104 C-44 141.29 -44 178.58 -44 217 C-58.85 217 -73.7 217 -89 217 C-89 179.71 -89 142.42 -89 104 C-97.91 104 -106.82 104 -116 104 C-116 91.46 -116 78.92 -116 66 C-107.09 66 -98.18 66 -89 66 C-89 61.71 -89 57.42 -89 53 C-87.29683919 39.13931728 -82.50534177 27.25717671 -73 17 C-72.42894531 16.37480469 -71.85789062 15.74960937 -71.26953125 15.10546875 C-52.65008301 -3.10295414 -24.12959619 -3.01619952 0 0 Z " fill="#131D30" transform="translate(476,592)"/>
<path d="M0 0 C1.18335938 0.89525391 1.18335938 0.89525391 2.390625 1.80859375 C3.11765625 2.35386719 3.8446875 2.89914062 4.59375 3.4609375 C12.81560303 10.12942517 18.22679349 19.18449966 22.390625 28.80859375 C22.71160156 29.52917969 23.03257812 30.24976563 23.36328125 30.9921875 C27.72223868 42.69041278 26.68281446 58.27333459 22.390625 69.80859375 C21.66979878 71.32282939 20.92192912 72.82465849 20.140625 74.30859375 C18.17718225 77.47164485 18.17718225 77.47164485 18.57421875 79.8984375 C19.81206201 82.79463538 22.26270065 83.61549033 24.890625 85.140625 C27.93421967 87.17127332 30.54769486 89.55861176 33.203125 92.05859375 C37.90433081 96.47757868 42.75036703 100.61701956 47.7734375 104.671875 C61.06058423 115.51973957 61.06058423 115.51973957 61.69140625 119.89453125 C61.71575707 124.65105724 61.68033793 128.08025243 58.390625 131.80859375 C54.2613385 134.4696895 51.26278108 135.29641914 46.390625 134.80859375 C43.8203125 133.2265625 43.8203125 133.2265625 41.265625 130.99609375 C40.31816406 130.17753906 39.37070312 129.35898437 38.39453125 128.515625 C37.39079744 127.61598699 36.38954519 126.71357362 35.390625 125.80859375 C34.88128418 125.34888184 34.37194336 124.88916992 33.84716797 124.41552734 C31.27785965 122.08837815 28.72524168 119.74402647 26.18359375 117.38671875 C21.56440529 113.12285248 16.8639695 108.98262553 11.953125 105.05859375 C9.390625 102.80859375 9.390625 102.80859375 8.390625 99.80859375 C5.6361954 97.57169054 5.6361954 97.57169054 2.828125 97.80859375 C-1.31802725 99.01474713 -4.44691983 101.03498984 -8.08984375 103.3125 C-19.9877998 110.37748786 -38.4251741 111.27289982 -51.7734375 107.9375 C-59.4007381 105.35842385 -66.12422153 101.54853872 -72.609375 96.80859375 C-73.31578125 96.30972656 -74.0221875 95.81085938 -74.75 95.296875 C-83.76689624 88.25020609 -90.24860907 76.63360224 -93.609375 65.80859375 C-93.83238281 65.10863281 -94.05539062 64.40867187 -94.28515625 63.6875 C-98.1744413 49.26804184 -95.68440075 33.57235117 -88.609375 20.62109375 C-80.3910308 6.45760036 -67.17465446 -4.86424137 -51.2890625 -9.5625 C-33.17918482 -12.65771264 -15.27494458 -10.63300783 0 0 Z " fill="#FDFAF9" transform="translate(559.609375,336.19140625)"/>
<path d="M0 0 C15.51 0 31.02 0 47 0 C47 70.95 47 141.9 47 215 C31.49 215 15.98 215 0 215 C0 144.05 0 73.1 0 0 Z " fill="#121C2F" transform="translate(88,594)"/>
<path d="M0 0 C14.52 0 29.04 0 44 0 C44 71.61 44 143.22 44 217 C29.48 217 14.96 217 0 217 C0 145.39 0 73.78 0 0 Z " fill="#121C2F" transform="translate(505,592)"/>
<path d="M0 0 C11.43832099 7.90223627 20.29974871 18.89474597 23.25 32.8125 C24.15010854 48.26087443 21.03659039 61.60557005 11.25 73.8125 C5.04588674 80.4854654 -1.26901398 84.59905062 -9.75 87.8125 C-10.44222656 88.13089844 -11.13445312 88.44929688 -11.84765625 88.77734375 C-21.05491586 92.62700721 -34.08008039 92.25907507 -43.42578125 88.84765625 C-57.59774404 82.53577366 -67.77169695 74.24197683 -74.0703125 59.78125 C-78.6435333 46.86110171 -78.22759919 33.38828986 -72.75 20.8125 C-66.43785821 8.3844488 -56.28024013 -0.40535913 -43.375 -5.5 C-28.74038293 -10.032846 -13.06710836 -7.77158589 0 0 Z " fill="#FD7E04" transform="translate(405.75,134.1875)"/>
<path d="M0 0 C11.82654918 -0.47134797 23.58503445 3.7120203 32.4375 11.60546875 C42.31559068 22.08780434 45.49372986 32.8029215 45.30883789 46.88574219 C44.86241683 60.28596197 39.93655681 71.11279219 30.11328125 80.41015625 C21.92223695 86.91949942 12.41151875 89.55307948 2.09375 89.4765625 C1.29912354 89.47092285 0.50449707 89.4652832 -0.31420898 89.45947266 C-12.33547693 89.21130749 -20.87580148 85.04615438 -29.78125 77.0390625 C-39.74147069 66.59241242 -41.63060987 53.24256372 -41.3359375 39.515625 C-40.80816018 27.29313825 -34.71174738 18.02956 -25.984375 9.6953125 C-22.63610537 6.98349082 -18.95988661 5.03477376 -15.09375 3.1640625 C-14.248125 2.7515625 -13.4025 2.3390625 -12.53125 1.9140625 C-8.4055614 0.64461986 -4.27353695 0.3348667 0 0 Z " fill="#FDFCFC" transform="translate(853.09375,684.8359375)"/>
<path d="M0 0 C11.3979399 5.93809305 18.22465697 13.06906676 22.9621582 25.11206055 C26.20957946 36.1377363 24.03624227 46.30950445 18.80200195 56.23706055 C13.12862314 65.59260444 4.55826224 70.98216211 -5.6628418 74.3815918 C-15.09729365 76.13417226 -25.68649513 76.05578205 -33.9128418 70.79956055 C-34.9853418 70.13956055 -36.0578418 69.47956055 -37.1628418 68.79956055 C-38.0703418 68.13956055 -38.9778418 67.47956055 -39.9128418 66.79956055 C-40.7584668 66.20143555 -41.6040918 65.60331055 -42.4753418 64.98706055 C-50.20510946 58.05008957 -53.95986008 49.31007141 -54.54052734 39.02441406 C-54.83846332 26.69716085 -51.59469686 17.61638977 -43.2253418 8.29956055 C-32.00119684 -1.93421868 -14.19016387 -6.48261724 0 0 Z " fill="#FD4F04" transform="translate(539.912841796875,349.200439453125)"/>
<path d="M0 0 C3.37789724 2.25193149 6.10754551 4.15312062 7.8125 7.875 C8.7034753 13.52300862 8.5852845 18.24356606 6.125 23.4375 C2.21830067 27.55537227 -0.4473706 29.04862217 -6.125 29.3125 C-10.90337919 29.13499706 -13.63709676 28.25633642 -17.1875 24.875 C-20.16552409 20.86507699 -21.53452994 17.26923793 -21.1875 12.25 C-20.27810047 6.97548272 -18.05869711 3.43433093 -13.9375 0 C-9.00359455 -2.01841587 -4.89347528 -1.72710892 0 0 Z " fill="#424B5A" transform="translate(651.1875,851.125)"/>
<path d="M0 0 C16.81228669 0 16.81228669 0 22 4 C25.65397571 7.88971608 26.30229891 11.64551044 26.21484375 16.94140625 C25.74443853 21.44874355 23.77954175 24.26043475 20.5625 27.3125 C14.01879823 31.62176702 8.31513005 30 0 30 C0 20.1 0 10.2 0 0 Z " fill="#444C5A" transform="translate(275,850)"/>
<path d="M0 0 C2.64 0 5.28 0 8 0 C11.04683576 5.8760404 13.62095135 11.82459711 16 18 C18.15311337 14.77032995 19.58269689 11.43948924 21.0625 7.875 C23.86923077 1.13076923 23.86923077 1.13076923 25 0 C27.31 0 29.62 0 32 0 C32 9.24 32 18.48 32 28 C30.35 28 28.7 28 27 28 C26.67 22.39 26.34 16.78 26 11 C23.69 16.94 21.38 22.88 19 29 C17.35 29 15.7 29 14 29 C11.69 23.06 9.38 17.12 7 11 C6.67 16.94 6.34 22.88 6 29 C4.02 29 2.04 29 0 29 C0 19.43 0 9.86 0 0 Z " fill="#3D4755" transform="translate(353,851)"/>
<path d="M0 0 C6 0 6 0 7.67504883 1.45288086 C8.09810303 2.11682861 8.52115723 2.78077637 8.95703125 3.46484375 C9.42947266 4.18220703 9.90191406 4.89957031 10.38867188 5.63867188 C10.85853516 6.39728516 11.32839844 7.15589844 11.8125 7.9375 C12.77720751 9.42586956 13.74204445 10.91415525 14.70703125 12.40234375 C15.1244458 13.06741943 15.54186035 13.73249512 15.97192383 14.41772461 C16.9060418 15.97526824 16.9060418 15.97526824 18 17 C18.33 11.39 18.66 5.78 19 0 C20.98 0 22.96 0 25 0 C25 9.9 25 19.8 25 30 C19 30 19 30 17.21728516 28.34765625 C16.51031494 27.21650391 16.51031494 27.21650391 15.7890625 26.0625 C15.26699219 25.25039063 14.74492188 24.43828125 14.20703125 23.6015625 C13.68496094 22.74304688 13.16289063 21.88453125 12.625 21 C12.07972656 20.14148438 11.53445313 19.28296875 10.97265625 18.3984375 C9.62942567 16.27754711 8.31217351 14.14024418 7 12 C6.67 17.94 6.34 23.88 6 30 C4.02 30 2.04 30 0 30 C0 20.1 0 10.2 0 0 Z " fill="#47505E" transform="translate(714,850)"/>
<path d="M0 0 C1.98 0 3.96 0 6 0 C6 9.9 6 19.8 6 30 C0 30 0 30 -1.78271484 28.47119141 C-2.25402832 27.77171387 -2.7253418 27.07223633 -3.2109375 26.3515625 C-3.73300781 25.59359375 -4.25507812 24.835625 -4.79296875 24.0546875 C-5.57607422 22.85199219 -5.57607422 22.85199219 -6.375 21.625 C-6.92027344 20.8309375 -7.46554687 20.036875 -8.02734375 19.21875 C-12 13.34439615 -12 13.34439615 -12 11 C-12.66 11 -13.32 11 -14 11 C-14 16.94 -14 22.88 -14 29 C-15.65 29 -17.3 29 -19 29 C-19 19.76 -19 10.52 -19 1 C-13 1 -13 1 -11.43261719 2.23754883 C-11.05782227 2.80497803 -10.68302734 3.37240723 -10.296875 3.95703125 C-9.8740625 4.57513672 -9.45125 5.19324219 -9.015625 5.83007812 C-8.59796875 6.48427734 -8.1803125 7.13847656 -7.75 7.8125 C-7.316875 8.45509766 -6.88375 9.09769531 -6.4375 9.75976562 C-5.2729141 11.49406407 -4.13512282 13.24627608 -3 15 C-2.01 16.485 -2.01 16.485 -1 18 C-0.67 12.06 -0.34 6.12 0 0 Z " fill="#404958" transform="translate(693,850)"/>
<path d="M0 0 C2.64 0 5.28 0 8 0 C9.67482275 4.26767998 11.33845499 8.53963493 13 12.8125 C13.47695313 14.02744141 13.95390625 15.24238281 14.4453125 16.49414062 C14.89648438 17.65751953 15.34765625 18.82089844 15.8125 20.01953125 C16.23144531 21.09307861 16.65039062 22.16662598 17.08203125 23.27270508 C18 26 18 26 18 29 C16.02 29 14.04 29 12 29 C11.34 27.02 10.68 25.04 10 23 C6.04 22.67 2.08 22.34 -2 22 C-2.66 24.31 -3.32 26.62 -4 29 C-5.98 29 -7.96 29 -10 29 C-7.67685461 18.95516186 -3.83099184 9.54074406 0 0 Z " fill="#404957" transform="translate(409,851)"/>
<path d="M0 0 C6 0 6 0 7.69091797 1.43701172 C8.12033691 2.09459473 8.54975586 2.75217773 8.9921875 3.4296875 C9.70761719 4.49896484 9.70761719 4.49896484 10.4375 5.58984375 C10.911875 6.34394531 11.38625 7.09804688 11.875 7.875 C12.37257812 8.62136719 12.87015625 9.36773438 13.3828125 10.13671875 C17 15.65193595 17 15.65193595 17 18 C17.66 18 18.32 18 19 18 C19 12.06 19 6.12 19 0 C20.65 0 22.3 0 24 0 C24 9.24 24 18.48 24 28 C18 28 18 28 16.30908203 26.56298828 C15.87966309 25.90540527 15.45024414 25.24782227 15.0078125 24.5703125 C14.53085938 23.85746094 14.05390625 23.14460937 13.5625 22.41015625 C13.088125 21.65605469 12.61375 20.90195312 12.125 20.125 C11.62742188 19.37863281 11.12984375 18.63226562 10.6171875 17.86328125 C7 12.34806405 7 12.34806405 7 10 C6.34 10 5.68 10 5 10 C5 15.94 5 21.88 5 28 C3.35 28 1.7 28 0 28 C0 18.76 0 9.52 0 0 Z " fill="#3B4454" transform="translate(235,851)"/>
<path d="M0 0 C14.52 0 29.04 0 44 0 C44 29.37 44 58.74 44 89 C43.67 89 43.34 89 43 89 C43 60.29 43 31.58 43 2 C29.14 2 15.28 2 1 2 C1 34.34 1 66.68 1 100 C0.34 100 -0.32 100 -1 100 C-1.0231211 87.10927745 -1.04091389 74.2185598 -1.05181217 61.32782078 C-1.05704151 55.34280734 -1.06414008 49.35780804 -1.07543945 43.37280273 C-1.08626653 37.60216571 -1.09227645 31.83154232 -1.09487724 26.06089592 C-1.09673182 23.85397057 -1.10035304 21.647046 -1.10573006 19.44012642 C-1.1129381 16.36053959 -1.11399104 13.28100986 -1.11352539 10.20141602 C-1.11712067 9.27928818 -1.12071594 8.35716034 -1.12442017 7.40708923 C-1.11405216 1.11405216 -1.11405216 1.11405216 0 0 Z " fill="#404554" transform="translate(581,650)"/>
<path d="M0 0 C1.65 0 3.3 0 5 0 C5 3.96 5 7.92 5 12 C9.62 12 14.24 12 19 12 C19 8.04 19 4.08 19 0 C20.98 0 22.96 0 25 0 C25 9.57 25 19.14 25 29 C23.02 29 21.04 29 19 29 C19 24.71 19 20.42 19 16 C14.38 16 9.76 16 5 16 C5 19.96 5 23.92 5 28 C3.35 28 1.7 28 0 28 C0 18.76 0 9.52 0 0 Z " fill="#394353" transform="translate(513,851)"/>
<path d="M0 0 C4.48339047 1.49446349 7.72344001 2.7147106 10 7 C10 7.99 10 8.98 10 10 C7.25 10.25 7.25 10.25 4 10 C3.360625 9.319375 2.72125 8.63875 2.0625 7.9375 C0.0388811 5.59347394 0.0388811 5.59347394 -3.5625 6 C-6.94751981 6.73429994 -6.94751981 6.73429994 -8.9375 8.625 C-10.42758471 11.95577759 -10.38043186 14.38589729 -10 18 C-8.84360194 20.31279611 -7.82590172 22.17409828 -6 24 C-3.12635209 24.41746608 -3.12635209 24.41746608 0 24 C0.66 23.34 1.32 22.68 2 22 C4 20 4 20 7.25 19.75 C8.61125 19.87375 8.61125 19.87375 10 20 C9.70179167 23.57849992 9.25754642 24.76226484 6.5625 27.25 C1.79243048 30.50760845 -2.29496713 30.89540875 -8 30 C-12.07143658 27.85674832 -14.42949971 25.16580494 -16.4375 21.0625 C-17.58415021 14.81962661 -17.50054447 10.43187934 -14 5 C-9.19516772 0.66393185 -6.50469706 -0.42653751 0 0 Z " fill="#424B59" transform="translate(607,850)"/>
<path d="M0 0 C3.03225391 1.95411919 4.8176793 3.82026895 6.8125 6.8125 C6.8125 7.4725 6.8125 8.1325 6.8125 8.8125 C4.0625 9.0625 4.0625 9.0625 0.8125 8.8125 C-0.52083333 7.47916667 -1.85416667 6.14583333 -3.1875 4.8125 C-6.45620461 4.3455422 -8.28331759 4.15774722 -11 6.125 C-13.61091557 9.83524844 -13.41816948 13.42977985 -13.1875 17.8125 C-12.17013229 20.57392665 -11.82579259 21.49335371 -9.1875 22.8125 C-6.2717309 23.22952122 -6.2717309 23.22952122 -3.1875 22.8125 C-2.5275 22.1525 -1.8675 21.4925 -1.1875 20.8125 C0.8125 18.8125 0.8125 18.8125 4.0625 18.5625 C5.42375 18.68625 5.42375 18.68625 6.8125 18.8125 C6.51429167 22.39099992 6.07004642 23.57476484 3.375 26.0625 C-1.4393046 29.35031777 -5.44369161 29.43011381 -11.1875 28.8125 C-15.28163957 26.95152747 -16.78758801 25.49235039 -19.0625 21.625 C-20.8300289 15.63504096 -21.38592337 11.04404696 -18.375 5.4375 C-13.10567879 -0.88568545 -8.30979014 -3.09580417 0 0 Z " fill="#404856" transform="translate(808.1875,851.1875)"/>
<path d="M0 0 C3.03225391 1.95411919 4.8176793 3.82026895 6.8125 6.8125 C6.8125 7.4725 6.8125 8.1325 6.8125 8.8125 C4.8325 8.8125 2.8525 8.8125 0.8125 8.8125 C0.4825 7.8225 0.1525 6.8325 -0.1875 5.8125 C-6.13234106 4.53913815 -6.13234106 4.53913815 -11.75 6.1875 C-13.83382013 9.99273676 -13.83129061 13.56048757 -13.1875 17.8125 C-11.94136649 20.98877397 -11.94136649 20.98877397 -9.1875 22.8125 C-6.22945427 23.14590471 -6.22945427 23.14590471 -3.1875 22.8125 C-2.6925 22.3175 -2.1975 21.8225 -1.6875 21.3125 C-0.1875 19.8125 -0.1875 19.8125 3 19.625 C4.3921875 19.7178125 4.3921875 19.7178125 5.8125 19.8125 C5.61287128 23.40581694 5.02511372 24.61078955 2.375 27.125 C-2.30465573 29.34167903 -6.09356233 29.63249972 -11.1875 28.8125 C-15.74617969 26.5746027 -17.91660886 24.28995109 -20.1875 19.8125 C-21.15392575 14.73526326 -21.36847183 9.8469208 -18.72265625 5.2890625 C-13.40983767 -0.93356222 -8.06107632 -3.00314608 0 0 Z " fill="#414A58" transform="translate(491.1875,851.1875)"/>
<path d="M0 0 C6.27 0 12.54 0 19 0 C19 1.32 19 2.64 19 4 C14.71 4 10.42 4 6 4 C6 6.64 6 9.28 6 12 C9.96 12 13.92 12 18 12 C18 13.32 18 14.64 18 16 C14.04 16 10.08 16 6 16 C6 18.64 6 21.28 6 24 C10.62 24 15.24 24 20 24 C20 25.65 20 27.3 20 29 C13.4 29 6.8 29 0 29 C0 19.43 0 9.86 0 0 Z " fill="#3B4453" transform="translate(755,851)"/>
<path d="M0 0 C6.27 0 12.54 0 19 0 C19 1.32 19 2.64 19 4 C14.71 4 10.42 4 6 4 C6 6.64 6 9.28 6 12 C9.96 12 13.92 12 18 12 C18 13.65 18 15.3 18 17 C14.04 17 10.08 17 6 17 C6 20.96 6 24.92 6 29 C4.02 29 2.04 29 0 29 C0 19.43 0 9.86 0 0 Z " fill="#404957" transform="translate(179,851)"/>
<path d="M0 0 C2.79315645 2.82482489 3.45160636 5.01156557 3.5 8.9375 C3.37642261 12.74031345 3.09414088 13.86155753 0.875 17.125 C-2.54735256 19.35696906 -4.00022668 19.83328611 -8 19 C-11.84380115 15.75412347 -13.83783616 13.71893666 -14.3125 8.6875 C-13.95124058 4.42463889 -12.98007946 2.98007946 -10 0 C-6.82503506 -1.58748247 -3.30053472 -1.07839253 0 0 Z " fill="#F1F2F3" transform="translate(650,856)"/>
<path d="M0 0 C7.59 0 15.18 0 23 0 C23 1.32 23 2.64 23 4 C20.03 4 17.06 4 14 4 C14 12.25 14 20.5 14 29 C12.02 29 10.04 29 8 29 C8 21.08 8 13.16 8 5 C5.36 5 2.72 5 0 5 C0 3.35 0 1.7 0 0 Z " fill="#424C5B" transform="translate(828,851)"/>
<path d="M0 0 C9 0 9 0 12.0625 2 C14.22259236 5.34465914 14.67672257 7.16897764 14.43359375 11.06640625 C13.75194607 14.10618646 12.19767713 15.86696044 10 18 C8 19 8 19 0 19 C0 12.73 0 6.46 0 0 Z " fill="#F4F5F5" transform="translate(281,856)"/>
<path d="M0 0 C7.59 0 15.18 0 23 0 C23 1.32 23 2.64 23 4 C20.03 4 17.06 4 14 4 C14 11.92 14 19.84 14 28 C12.35 28 10.7 28 9 28 C9 20.08 9 12.16 9 4 C6.03 4 3.06 4 0 4 C0 2.68 0 1.36 0 0 Z " fill="#313B4B" transform="translate(436,851)"/>
<path d="M0 0 C-65.93003369 29.83220699 -65.93003369 29.83220699 -89.13476562 38.30078125 C-90.61924956 38.85726842 -92.08194606 39.4717885 -93.53515625 40.10546875 C-97.07541611 41.39028572 -100.67039192 41.99029442 -104.375 42.625 C-105.10460937 42.7590625 -105.83421875 42.893125 -106.5859375 43.03125 C-111.12749905 43.82602327 -115.39062763 44.13378126 -120 44 C-116.57315942 42.19817228 -113.04414342 40.77826741 -109.4375 39.375 C-108.30183594 38.92898438 -107.16617187 38.48296875 -105.99609375 38.0234375 C-103 37 -103 37 -100 37 C-100.66 37.99 -101.32 38.98 -102 40 C-87.55300748 35.6896484 -73.75688213 30.37442062 -60 24.25 C-59.26348206 23.92248749 -58.52696411 23.59497498 -57.76812744 23.25753784 C-48.4907534 19.12558784 -48.4907534 19.12558784 -39.359375 14.68359375 C-36.35341461 13.17711825 -33.40887491 11.95126568 -30.25 10.8125 C-23.23375551 8.19585353 -16.47515363 5.07757959 -9.71582031 1.85864258 C-8.88920898 1.47474365 -8.06259766 1.09084473 -7.2109375 0.6953125 C-6.47149902 0.34484863 -5.73206055 -0.00561523 -4.97021484 -0.36669922 C-3 -1 -3 -1 0 0 Z " fill="#F02D17" transform="translate(517,534)"/>
<path d="M0 0 C1.65 0 3.3 0 5 0 C5 9.24 5 18.48 5 28 C-1 28 -1 28 -2.71484375 26.609375 C-3.32005859 25.68898438 -3.32005859 25.68898438 -3.9375 24.75 C-4.35902344 24.14671875 -4.78054687 23.5434375 -5.21484375 22.921875 C-6 21 -6 21 -5.81640625 18.828125 C-5.54699219 18.22484375 -5.27757812 17.6215625 -5 17 C-4.01 16.67 -3.02 16.34 -2 16 C-2 16.66 -2 17.32 -2 18 C-1.34 18 -0.68 18 0 18 C0 12.06 0 6.12 0 0 Z " fill="#363F4D" transform="translate(254,851)"/>
<path d="M0 0 C0.66 0.99 1.32 1.98 2 3 C2.66 3.66 3.32 4.32 4 5 C4.99 4.34 5.98 3.68 7 3 C14 18.35025381 14 18.35025381 14 23 C12.02 23 10.04 23 8 23 C7.34 21.02 6.68 19.04 6 17 C2.04 16.67 -1.92 16.34 -6 16 C-6 15.67 -6 15.34 -6 15 C-1.545 14.505 -1.545 14.505 3 14 C3 13.67 3 13.34 3 13 C0.69 12.67 -1.62 12.34 -4 12 C-3.71640113 10.5608866 -3.42278601 9.12374482 -3.125 7.6875 C-2.88136719 6.48673828 -2.88136719 6.48673828 -2.6328125 5.26171875 C-2 3 -2 3 0 0 Z " fill="#4A5260" transform="translate(413,857)"/>
<path d="M0 0 C1.98 0 3.96 0 6 0 C6 9.9 6 19.8 6 30 C4.02 30 2.04 30 0 30 C0 20.1 0 10.2 0 0 Z " fill="#49525F" transform="translate(213,850)"/>
<path d="M0 0 C1.65 0 3.3 0 5 0 C5 3.96 5 7.92 5 12 C9.62 12 14.24 12 19 12 C19 12.33 19 12.66 19 13 C14.38 13 9.76 13 5 13 C5 13.66 5 14.32 5 15 C9.62 15 14.24 15 19 15 C19 15.33 19 15.66 19 16 C14.38 16 9.76 16 5 16 C5 19.96 5 23.92 5 28 C3.35 28 1.7 28 0 28 C0 18.76 0 9.52 0 0 Z " fill="#303A49" transform="translate(513,851)"/>
<path d="M0 0 C3.125 -0.1875 3.125 -0.1875 6 0 C5.70179167 3.57849992 5.25754642 4.76226484 2.5625 7.25 C-1.0478586 9.71561075 -2.79166906 10.11805552 -7.125 10.0625 C-8.03507813 10.05347656 -8.94515625 10.04445313 -9.8828125 10.03515625 C-10.58148437 10.02355469 -11.28015625 10.01195312 -12 10 C-11.67 8.35 -11.34 6.7 -11 5 C-10.37351562 4.89042969 -9.74703125 4.78085937 -9.1015625 4.66796875 C-7.87566406 4.43013672 -7.87566406 4.43013672 -6.625 4.1875 C-5.81289063 4.03667969 -5.00078125 3.88585937 -4.1640625 3.73046875 C-1.64179359 3.12455058 -1.64179359 3.12455058 0 0 Z " fill="#474F5E" transform="translate(809,870)"/>
<path d="M0 0 C2.31 0 4.62 0 7 0 C7 9.24 7 18.48 7 28 C5.35 28 3.7 28 2 28 C2 22.06 2 16.12 2 10 C2.33 11.32 2.66 12.64 3 14 C3.66 14 4.32 14 5 14 C5.33 9.71 5.66 5.42 6 1 C4.02 1.33 2.04 1.66 0 2 C0 1.34 0 0.68 0 0 Z " fill="#323C4C" transform="translate(378,851)"/>
<path d="M0 0 C1.15680267 0.00212242 1.15680267 0.00212242 2.3369751 0.00428772 C4.79239838 0.00987091 7.24772942 0.0224203 9.703125 0.03515625 C11.37109243 0.04017342 13.03906129 0.04473595 14.70703125 0.04882812 C18.78909787 0.05983484 22.87109581 0.07708789 26.953125 0.09765625 C26.623125 1.08765625 26.293125 2.07765625 25.953125 3.09765625 C12.753125 3.09765625 -0.446875 3.09765625 -14.046875 3.09765625 C-10.13816308 -0.81105567 -5.24233206 -0.03632142 0 0 Z " fill="#FB8F32" transform="translate(367.046875,242.90234375)"/>
<path d="M0 0 C2.25980539 4.51961078 2.31983581 8.04254494 2 13 C1.01 14.485 1.01 14.485 0 16 C-1.32 15.67 -2.64 15.34 -4 15 C-4.33 10.71 -4.66 6.42 -5 2 C-2 0 -2 0 0 0 Z " fill="#3C4452" transform="translate(299,856)"/>
<path d="M0 0 C1.98 0 3.96 0 6 0 C6 9.57 6 19.14 6 29 C4.02 29 2.04 29 0 29 C0 28.34 0 27.68 0 27 C1.32 27 2.64 27 4 27 C4 18.42 4 9.84 4 1 C3.01 1 2.02 1 1 1 C1 4.63 1 8.26 1 12 C0.67 12 0.34 12 0 12 C0 8.04 0 4.08 0 0 Z " fill="#555D6A" transform="translate(532,851)"/>
<path d="M0 0 C2.64 0 5.28 0 8 0 C7.67 0.66 7.34 1.32 7 2 C5.35 1.67 3.7 1.34 2 1 C2 9.58 2 18.16 2 27 C3.32 27 4.64 27 6 27 C6 27.66 6 28.32 6 29 C4.02 29 2.04 29 0 29 C0 19.43 0 9.86 0 0 Z " fill="#575F6B" transform="translate(353,851)"/>
<path d="M0 0 C0 0.33 0 0.66 0 1 C-6.96187058 1.65744478 -13.81699079 2.04285405 -20.8125 1.9375 C-24.95331398 1.89485516 -28.63321277 1.93487649 -32.625 3.0625 C-35.99028572 3.99730159 -37.71234194 4.02739314 -41 3 C-29.71252212 -3.55224326 -12.4609156 -1.71874698 0 0 Z " fill="#FB8730" transform="translate(871,648)"/>
<path d="M0 0 C2.3125 2.0625 2.3125 2.0625 4 4 C1.525 5.485 1.525 5.485 -1 7 C-1.99 6.34 -2.98 5.68 -4 5 C-6.27912938 4.54605448 -6.27912938 4.54605448 -8.6875 4.375 C-9.89986328 4.26285156 -9.89986328 4.26285156 -11.13671875 4.1484375 C-11.75160156 4.09945312 -12.36648438 4.05046875 -13 4 C-12.67 2.68 -12.34 1.36 -12 0 C-4.01204819 -1.40963855 -4.01204819 -1.40963855 0 0 Z " fill="#4D5462" transform="translate(294,852)"/>
<path d="M0 0 C0.33 0 0.66 0 1 0 C1 9.57 1 19.14 1 29 C-1.31 29 -3.62 29 -6 29 C-6.06058594 28.09636719 -6.12117188 27.19273437 -6.18359375 26.26171875 C-6.26738281 25.08222656 -6.35117187 23.90273438 -6.4375 22.6875 C-6.51871094 21.51574219 -6.59992188 20.34398437 -6.68359375 19.13671875 C-6.8867371 15.97409042 -6.8867371 15.97409042 -8 13 C-7.01 11.68 -6.02 10.36 -5 9 C-5 15.27 -5 21.54 -5 28 C-3.35 28 -1.7 28 0 28 C0 18.76 0 9.52 0 0 Z " fill="#B9BBC0" transform="translate(385,851)"/>
<path d="M0 0 C4.62 0 9.24 0 14 0 C14 1.65 14 3.3 14 5 C7.4 5 0.8 5 -6 5 C-6 4.34 -6 3.68 -6 3 C-0.06 3 5.88 3 12 3 C12 2.34 12 1.68 12 1 C8.04 1 4.08 1 0 1 C0 0.67 0 0.34 0 0 Z " fill="#4E5562" transform="translate(761,875)"/>
<path d="M0 0 C2.44839588 3.67259383 4 6.54648201 4 11 C1.36 11 -1.28 11 -4 11 C-3.5247412 9.35303396 -3.04468109 7.70745272 -2.5625 6.0625 C-2.29566406 5.14597656 -2.02882813 4.22945312 -1.75390625 3.28515625 C-1 1 -1 1 0 0 Z " fill="#E7E9EB" transform="translate(413,857)"/>
<path d="M0 0 C0.78375 0.04125 1.5675 0.0825 2.375 0.125 C3 2.5 3 2.5 3.375 5.125 C2.715 5.785 2.055 6.445 1.375 7.125 C-1.25 6.75 -1.25 6.75 -3.625 6.125 C-4.25 4.25 -4.25 4.25 -4.625 2.125 C-2.625 0.125 -2.625 0.125 0 0 Z " fill="#FE5E23" transform="translate(864.625,872.875)"/>
<path d="M0 0 C0.78375 0.04125 1.5675 0.0825 2.375 0.125 C3 2.5 3 2.5 3.375 5.125 C2.715 5.785 2.055 6.445 1.375 7.125 C-1.25 6.75 -1.25 6.75 -3.625 6.125 C-4.25 4.25 -4.25 4.25 -4.625 2.125 C-2.625 0.125 -2.625 0.125 0 0 Z " fill="#FC6923" transform="translate(317.625,872.875)"/>
<path d="M0 0 C0 3 0 3 -1.37695312 4.7175293 C-2.00537109 5.33023682 -2.63378906 5.94294434 -3.28125 6.57421875 C-3.95800781 7.24130859 -4.63476562 7.90839844 -5.33203125 8.59570312 C-6.04746094 9.28599609 -6.76289062 9.97628906 -7.5 10.6875 C-8.57314453 11.7403418 -8.57314453 11.7403418 -9.66796875 12.81445312 C-11.43879577 14.54986361 -13.21623456 16.2779073 -15 18 C-15.66 17.67 -16.32 17.34 -17 17 C-15.29657414 15.09955869 -13.58752883 13.20471126 -11.875 11.3125 C-11.400625 10.78205078 -10.92625 10.25160156 -10.4375 9.70507812 C-7.18500869 6.12294242 -3.77952775 3.02250068 0 0 Z " fill="#FB7A1B" transform="translate(804,663)"/>
<path d="M0 0 C2.5 0.125 2.5 0.125 3.5 1.125 C3.625 3.625 3.625 3.625 3.5 6.125 C2.5 7.125 2.5 7.125 -0.0625 7.1875 C-1.2690625 7.1565625 -1.2690625 7.1565625 -2.5 7.125 C-2.88133299 5.1335944 -3.21325582 3.13220923 -3.5 1.125 C-2.5 0.125 -2.5 0.125 0 0 Z " fill="#FC641D" transform="translate(555.5,872.875)"/>
<path d="M0 0 C0 4.56272532 -2.7895232 6.72286202 -5.6875 10.0625 C-6.48317383 11.01866211 -6.48317383 11.01866211 -7.29492188 11.99414062 C-10.24200776 15.42577805 -12.48230076 17.78466347 -17 19 C-11.52509066 12.489297 -5.76776422 6.25012173 0 0 Z " fill="#FB681F" transform="translate(441,448)"/>
<path d="M0 0 C-2.22791998 1.12752649 -4.45725887 2.25208139 -6.6875 3.375 C-7.31333984 3.69210937 -7.93917969 4.00921875 -8.58398438 4.3359375 C-15.89353784 8.00984919 -15.89353784 8.00984919 -19 9 C-19.99 8.67 -20.98 8.34 -22 8 C-3.35699374 -1.67849687 -3.35699374 -1.67849687 0 0 Z " fill="#FD4819" transform="translate(579,506)"/>
<path d="M0 0 C2.97 0 5.94 0 9 0 C9 0.99 9 1.98 9 3 C5.7 3 2.4 3 -1 3 C-0.67 2.01 -0.34 1.02 0 0 Z " fill="#363F4F" transform="translate(188,864)"/>
<path d="M0 0 C0.33 0 0.66 0 1 0 C1 6.6 1 13.2 1 20 C0.67 20 0.34 20 0 20 C-0.06058594 19.09636719 -0.12117188 18.19273437 -0.18359375 17.26171875 C-0.26738281 16.08222656 -0.35117187 14.90273438 -0.4375 13.6875 C-0.51871094 12.51574219 -0.59992188 11.34398437 -0.68359375 10.13671875 C-0.8867371 6.97409042 -0.8867371 6.97409042 -2 4 C-1.0625 1.8125 -1.0625 1.8125 0 0 Z " fill="#D4D6D9" transform="translate(379,860)"/>
<path d="M0 0 C0.66 0.33 1.32 0.66 2 1 C-0.13790949 3.35170044 -2.00593401 4.88791835 -5 6 C-8.25 6.125 -8.25 6.125 -11 6 C-11.33 5.34 -11.66 4.68 -12 4 C-11.38511719 3.87882812 -10.77023437 3.75765625 -10.13671875 3.6328125 C-9.32847656 3.46523438 -8.52023437 3.29765625 -7.6875 3.125 C-6.88699219 2.96257812 -6.08648438 2.80015625 -5.26171875 2.6328125 C-2.74698882 2.05521001 -2.74698882 2.05521001 0 0 Z " fill="#FC4013" transform="translate(618,467)"/>
<path d="M0 0 C-1.5830577 4.2742558 -4.50568404 6.26531794 -8 9 C-8.66 8.67 -9.32 8.34 -10 8 C-8.71451591 6.66070495 -7.42141845 5.32871357 -6.125 4 C-5.04605469 2.88625 -5.04605469 2.88625 -3.9453125 1.75 C-2 0 -2 0 0 0 Z " fill="#1D283A" transform="translate(410,604)"/>
<path d="M0 0 C5.61 0 11.22 0 17 0 C17 0.66 17 1.32 17 2 C13.25 3.125 13.25 3.125 11 2 C9.12943209 1.7724985 7.25314042 1.59037189 5.375 1.4375 C4.37210938 1.35371094 3.36921875 1.26992188 2.3359375 1.18359375 C1.56507813 1.12300781 0.79421875 1.06242187 0 1 C0 0.67 0 0.34 0 0 Z " fill="#FC7847" transform="translate(517,445)"/>
<path d="M0 0 C4.29 0 8.58 0 13 0 C13 0.66 13 1.32 13 2 C9.61725734 3.12758089 8.23221777 2.81750262 4.8125 2.0625 C3.91144531 1.86785156 3.01039063 1.67320312 2.08203125 1.47265625 C1.39496094 1.31667969 0.70789063 1.16070312 0 1 C0 0.67 0 0.34 0 0 Z " fill="#FD4B0F" transform="translate(515,446)"/>
<path d="M0 0 C2.22909871 -0.02714735 4.45829367 -0.04646254 6.6875 -0.0625 C7.92886719 -0.07410156 9.17023438 -0.08570313 10.44921875 -0.09765625 C13.46235454 -0.01478673 16.08275339 0.29160551 19 1 C15.05229304 3.63180464 12.26019851 2.8008948 7.8125 2.125 C7.06291016 2.02058594 6.31332031 1.91617188 5.54101562 1.80859375 C3.69250796 1.5495672 1.84602568 1.27616034 0 1 C0 0.67 0 0.34 0 0 Z " fill="#FD9329" transform="translate(472,253)"/>
<path d="M0 0 C-0.33 0.99 -0.66 1.98 -1 3 C-1.886875 3.144375 -2.77375 3.28875 -3.6875 3.4375 C-6.47117646 3.91019978 -9.23483757 4.43070185 -12 5 C-8.24532309 1.94063363 -4.91886939 0 0 0 Z " fill="#FD8F27" transform="translate(472,254)"/>
<path d="M0 0 C1.65 1.65 3.3 3.3 5 5 C3.02 5.99 3.02 5.99 1 7 C0 6 0 6 -0.0625 2.9375 C-0.041875 1.968125 -0.02125 0.99875 0 0 Z " fill="#F7F7F7" transform="translate(680,862)"/>
<path d="M0 0 C1.65 0 3.3 0 5 0 C5 2.31 5 4.62 5 7 C2.47411298 4.63707344 1.11179163 3.33537489 0 0 Z " fill="#F0F0F1" transform="translate(728,862)"/>
</svg>
